<svg width="56" height="70" viewBox="0 0 56 70" fill="none" xmlns="http://www.w3.org/2000/svg">
<path d="M27.685 70L27.2857 69.8663C24.495 68.9214 0.0221835 60.3636 0 50.2458V6.922L27.9867 0L55.9778 6.89971V50.2235C55.9778 60.3457 30.9238 68.9214 28.0666 69.8663L27.685 70ZM2.54666 8.91436V50.228C2.54666 53.553 6.98336 57.6804 15.0582 61.8523C19.1494 63.9394 23.37 65.7602 27.6939 67.3034C32.1253 65.7593 36.4553 63.9357 40.6579 61.8434C48.9102 57.6625 53.4489 53.5396 53.4489 50.228V8.91436L27.9867 2.63865L2.54666 8.91436Z" fill="white"/>
<path d="M15.7724 45.7084V30.5539L27.9955 18.787L40.2319 30.5272V45.6816L15.7724 45.7084ZM18.3102 31.646V43.1633H37.7119V31.646L27.9955 22.326L18.3102 31.646Z" fill="#E54A35"/>
</svg>
