<svg width="76" height="72" viewBox="0 0 76 72" fill="none" xmlns="http://www.w3.org/2000/svg">
<path d="M75.4429 29.3453L41.522 2.20844C39.4482 0.549659 36.552 0.549659 34.4782 2.20844L0.557182 29.3453C-0.0830274 29.8574 -0.186785 30.7915 0.325323 31.4317L5.51469 37.9184C5.7605 38.2258 6.11853 38.423 6.50981 38.4665C6.90198 38.51 7.29371 38.3961 7.60112 38.1503L10.6876 35.681V69.5511C10.6876 70.371 11.3523 71.0355 12.1719 71.0355H31.3203C32.14 71.0355 32.8047 70.371 32.8047 69.5511C32.8047 68.7313 32.14 68.0668 31.3203 68.0668H13.6563V33.306L38 13.8311L62.3437 33.306V68.0668H44.6797C43.86 68.0668 43.1953 68.7313 43.1953 69.5511C43.1953 70.371 43.86 71.0355 44.6797 71.0355H63.8281C64.6478 71.0355 65.3125 70.371 65.3125 69.5511V35.681L68.3989 38.1501C68.6633 38.3617 68.9907 38.4754 69.3262 38.4754C69.3807 38.4754 69.4355 38.4724 69.4901 38.4663C69.8814 38.4228 70.2394 38.2257 70.4852 37.9183L75.6746 31.4316C76.1868 30.7914 76.0831 29.8574 75.4429 29.3453V29.3453ZM69.0945 34.9047L38.9273 10.771C38.6563 10.5542 38.3281 10.4458 38 10.4458C37.672 10.4458 37.3438 10.5542 37.0727 10.771L6.90569 34.9047L3.5709 30.7361L36.3328 4.52674C37.3144 3.74121 38.6858 3.74136 39.6674 4.52674L72.4293 30.7361L69.0945 34.9047Z" fill="#3DAFE1"/>
<path d="M50.7093 35.0658C47.2153 31.5718 41.5298 31.5718 38.0354 35.0658L38.0001 35.1012L37.9648 35.0657C34.4706 31.5716 28.7851 31.5715 25.2909 35.0657C21.7968 38.5599 21.7968 44.2452 25.2909 47.7394L36.0562 58.5047C36.592 59.0406 37.2961 59.3085 38.0001 59.3085C38.704 59.3085 39.408 59.0404 39.9442 58.5045L50.7093 47.7394C54.2035 44.2453 54.2035 38.56 50.7093 35.0658ZM48.6101 45.6402L38.0001 56.2502L27.3901 45.6402C25.0534 43.3037 25.0534 39.5016 27.3901 37.165C28.5585 35.9965 30.0929 35.4126 31.6277 35.4126C33.1622 35.4126 34.6972 35.9968 35.8654 37.165L36.9505 38.2501C37.2288 38.5284 37.6065 38.6849 38.0001 38.6849C38.3938 38.6849 38.7714 38.5284 39.0497 38.2501L40.1348 37.165C42.4715 34.8283 46.2736 34.8283 48.6101 37.165C50.9468 39.5016 50.9468 43.3037 48.6101 45.6402Z" fill="#E54A35"/>
<path d="M38.0001 68.0669C37.6097 68.0669 37.2267 68.2257 36.9506 68.5018C36.6745 68.7779 36.5157 69.1609 36.5157 69.5513C36.5157 69.9417 36.6744 70.3246 36.9506 70.6007C37.2269 70.8768 37.6097 71.0356 38.0001 71.0356C38.3905 71.0356 38.7735 70.8768 39.0494 70.6007C39.3255 70.3246 39.4845 69.9417 39.4845 69.5513C39.4845 69.1609 39.3256 68.7779 39.0494 68.5018C38.7735 68.2257 38.3905 68.0669 38.0001 68.0669Z" fill="#3DAFE1"/>
</svg>
