<svg width="514" height="494" viewBox="0 0 514 494" fill="none" xmlns="http://www.w3.org/2000/svg">
<g filter="url(#filter0_d_2_338)">
<circle cx="247" cy="243" r="235" fill="#E1F2FF"/>
</g>
<g clip-path="url(#clip0_2_338)">
<path d="M279.66 392.382V400.815H310.348C310.451 396.659 312.177 392.707 315.158 389.804C318.14 386.901 322.14 385.276 326.305 385.276C330.47 385.276 334.47 386.901 337.452 389.804C340.433 392.707 342.159 396.659 342.262 400.815H372.95V392.382H358.146C357.395 389.595 356.282 386.917 354.837 384.416L365.31 373.963L353.27 361.946L342.797 372.448C340.295 371.001 337.611 369.894 334.816 369.155V354.32H317.793V369.106C314.999 369.847 312.315 370.954 309.812 372.399L299.379 361.946L287.339 373.963L297.812 384.416C296.366 386.915 295.256 389.594 294.512 392.382H279.66Z" fill="#BEDCE0"/>
<path d="M19.2637 400.815C19.2637 400.815 22.9622 172.383 67.7338 170.664C112.505 168.944 84.2799 358.323 110.608 358.323C136.935 358.323 138.337 248.245 166.942 248.245C195.547 248.245 182.748 366.619 205.076 366.619C227.403 366.619 217.865 229.418 242.587 229.418C271.143 229.418 260.446 346.966 277.888 346.966C305.14 346.966 286.969 162.387 337.21 162.387C390.946 162.387 370.478 377.5 394.576 377.5C418.675 377.5 410.49 215.565 452.361 215.565C487.263 215.565 491.449 400.815 491.449 400.815" stroke="#BEDCE0" stroke-width="0.83" stroke-miterlimit="10"/>
<path d="M41.9516 221.792C41.9516 222.715 41.6776 223.616 41.1642 224.383C40.6509 225.15 39.9212 225.748 39.0676 226.1C38.2139 226.453 37.2746 226.546 36.3683 226.366C35.4621 226.186 34.6296 225.742 33.9763 225.09C33.3229 224.437 32.8779 223.607 32.6977 222.702C32.5174 221.798 32.6099 220.86 32.9635 220.008C33.3171 219.156 33.9159 218.428 34.6842 217.915C35.4525 217.403 36.3557 217.129 37.2797 217.129C37.8936 217.128 38.5017 217.248 39.0691 217.482C39.6365 217.716 40.152 218.059 40.5861 218.492C41.0202 218.925 41.3642 219.44 41.5986 220.006C41.8329 220.573 41.9528 221.18 41.9516 221.792V221.792Z" fill="#2592E6"/>
<path d="M192.949 306.99C192.949 307.912 192.675 308.814 192.161 309.581C191.648 310.348 190.918 310.945 190.065 311.298C189.211 311.651 188.272 311.744 187.365 311.564C186.459 311.384 185.627 310.94 184.973 310.287C184.32 309.635 183.875 308.804 183.695 307.9C183.514 306.995 183.607 306.058 183.961 305.206C184.314 304.354 184.913 303.625 185.681 303.113C186.45 302.601 187.353 302.327 188.277 302.327C189.516 302.327 190.704 302.818 191.58 303.693C192.456 304.567 192.949 305.753 192.949 306.99V306.99Z" fill="#2592E6"/>
<path d="M284.331 347.19C284.331 348.112 284.057 349.013 283.544 349.78C283.031 350.547 282.301 351.145 281.447 351.498C280.594 351.851 279.654 351.943 278.748 351.763C277.842 351.583 277.01 351.139 276.356 350.487C275.703 349.835 275.258 349.004 275.078 348.099C274.897 347.195 274.99 346.257 275.343 345.405C275.697 344.553 276.296 343.825 277.064 343.312C277.832 342.8 278.736 342.527 279.66 342.527C280.273 342.525 280.882 342.645 281.449 342.879C282.016 343.113 282.532 343.456 282.966 343.89C283.4 344.323 283.744 344.837 283.978 345.404C284.213 345.97 284.333 346.577 284.331 347.19V347.19Z" fill="#2592E6"/>
<path d="M324.363 172.529C324.365 173.452 324.093 174.354 323.581 175.122C323.068 175.89 322.339 176.49 321.486 176.844C320.632 177.199 319.693 177.292 318.786 177.113C317.879 176.935 317.046 176.491 316.391 175.84C315.737 175.188 315.291 174.357 315.11 173.452C314.929 172.547 315.021 171.609 315.374 170.757C315.728 169.904 316.326 169.175 317.095 168.662C317.863 168.149 318.767 167.876 319.691 167.876C320.929 167.876 322.116 168.366 322.991 169.238C323.867 170.11 324.361 171.294 324.363 172.529V172.529Z" fill="#2592E6"/>
<path d="M425.673 270.657C425.675 271.58 425.403 272.482 424.891 273.251C424.378 274.019 423.649 274.618 422.796 274.972C421.943 275.327 421.003 275.42 420.096 275.242C419.189 275.063 418.356 274.619 417.701 273.968C417.047 273.316 416.601 272.485 416.42 271.58C416.239 270.675 416.331 269.737 416.684 268.885C417.038 268.032 417.636 267.303 418.405 266.79C419.173 266.278 420.077 266.004 421.001 266.004C422.239 266.004 423.426 266.494 424.301 267.366C425.177 268.239 425.671 269.422 425.673 270.657V270.657Z" fill="#2592E6"/>
<path d="M480.859 284.87C483.439 284.87 485.531 282.782 485.531 280.207C485.531 277.631 483.439 275.544 480.859 275.544C478.279 275.544 476.187 277.631 476.187 280.207C476.187 282.782 478.279 284.87 480.859 284.87Z" fill="#2592E6"/>
<path d="M464.245 160.279H403.959C401.024 160.279 398.645 162.654 398.645 165.583V206.365C398.645 209.295 401.024 211.67 403.959 211.67H464.245C467.18 211.67 469.559 209.295 469.559 206.365V165.583C469.559 162.654 467.18 160.279 464.245 160.279Z" fill="#0A152B"/>
<path d="M444.098 171.188H458.367C458.643 171.188 458.908 171.079 459.103 170.884C459.298 170.689 459.408 170.425 459.408 170.149C459.408 169.873 459.298 169.609 459.103 169.414C458.908 169.219 458.643 169.109 458.367 169.109H444.098C443.96 169.108 443.824 169.134 443.697 169.186C443.569 169.237 443.453 169.314 443.355 169.41C443.258 169.507 443.18 169.622 443.127 169.749C443.074 169.876 443.047 170.012 443.047 170.149C443.047 170.286 443.074 170.422 443.127 170.549C443.18 170.676 443.258 170.791 443.355 170.887C443.453 170.984 443.569 171.06 443.697 171.112C443.824 171.164 443.96 171.19 444.098 171.188Z" fill="#D68D8D"/>
<path d="M432.954 175.142H458.366C458.642 175.142 458.907 175.033 459.103 174.838C459.298 174.643 459.408 174.379 459.408 174.103V174.103C459.408 173.827 459.298 173.563 459.103 173.368C458.907 173.173 458.642 173.063 458.366 173.063H432.954C432.677 173.063 432.412 173.173 432.217 173.368C432.022 173.563 431.912 173.827 431.912 174.103V174.103C431.912 174.379 432.022 174.643 432.217 174.838C432.412 175.033 432.677 175.142 432.954 175.142V175.142Z" fill="white"/>
<path d="M416.583 175.142H428.769C429.045 175.142 429.31 175.033 429.505 174.838C429.7 174.643 429.81 174.379 429.81 174.103V174.103C429.81 173.827 429.7 173.563 429.505 173.368C429.31 173.173 429.045 173.063 428.769 173.063H416.583C416.307 173.063 416.042 173.173 415.847 173.368C415.651 173.563 415.542 173.827 415.542 174.103V174.103C415.542 174.379 415.651 174.643 415.847 174.838C416.042 175.033 416.307 175.142 416.583 175.142V175.142Z" fill="#BEDCE0"/>
<path d="M414.831 179.106H458.366C458.941 179.106 459.408 178.641 459.408 178.066C459.408 177.492 458.941 177.027 458.366 177.027H414.831C414.256 177.027 413.789 177.492 413.789 178.066C413.789 178.641 414.256 179.106 414.831 179.106Z" fill="#EBBC3B"/>
<path d="M455.154 183.06H458.366C458.643 183.06 458.907 182.95 459.103 182.755C459.298 182.56 459.408 182.296 459.408 182.02C459.408 181.745 459.298 181.48 459.103 181.285C458.907 181.09 458.643 180.981 458.366 180.981H455.154C455.018 180.983 454.883 181.013 454.757 181.067C454.632 181.122 454.519 181.201 454.424 181.299C454.329 181.397 454.254 181.513 454.204 181.64C454.154 181.768 454.13 181.903 454.133 182.04C454.138 182.309 454.247 182.565 454.437 182.756C454.628 182.946 454.885 183.055 455.154 183.06Z" fill="#2592E6"/>
<path d="M429.1 183.06H450.94C451.217 183.06 451.481 182.95 451.677 182.755C451.872 182.56 451.982 182.296 451.982 182.02V182.02C451.982 181.745 451.872 181.48 451.677 181.285C451.481 181.09 451.217 180.981 450.94 180.981H429.1C428.823 180.981 428.558 181.09 428.363 181.285C428.168 181.48 428.058 181.745 428.058 182.02C428.058 182.296 428.168 182.56 428.363 182.755C428.558 182.95 428.823 183.06 429.1 183.06Z" fill="#BEDCE0"/>
<path d="M444.098 187.014H458.367C458.643 187.014 458.908 186.904 459.103 186.709C459.298 186.514 459.408 186.25 459.408 185.974C459.408 185.699 459.298 185.434 459.103 185.239C458.908 185.044 458.643 184.935 458.367 184.935H444.098C443.96 184.933 443.824 184.959 443.697 185.011C443.569 185.063 443.453 185.139 443.355 185.236C443.258 185.332 443.18 185.447 443.127 185.574C443.074 185.701 443.047 185.837 443.047 185.974C443.047 186.112 443.074 186.247 443.127 186.374C443.18 186.501 443.258 186.616 443.355 186.713C443.453 186.809 443.569 186.886 443.697 186.937C443.824 186.989 443.96 187.015 444.098 187.014Z" fill="white"/>
<path d="M423.191 190.968H458.366C458.642 190.968 458.907 190.858 459.103 190.663C459.298 190.468 459.408 190.204 459.408 189.928V189.928C459.408 189.652 459.298 189.388 459.103 189.193C458.907 188.998 458.642 188.889 458.366 188.889H423.191C422.915 188.889 422.65 188.998 422.455 189.193C422.26 189.388 422.15 189.652 422.15 189.928V189.928C422.15 190.204 422.26 190.468 422.455 190.663C422.65 190.858 422.915 190.968 423.191 190.968V190.968Z" fill="#EBBC3B"/>
<path d="M414.305 194.931H458.366C458.504 194.931 458.64 194.904 458.767 194.851C458.894 194.798 459.009 194.721 459.106 194.623C459.203 194.526 459.279 194.41 459.331 194.283C459.383 194.156 459.409 194.019 459.408 193.882C459.408 193.606 459.298 193.342 459.103 193.147C458.907 192.952 458.642 192.843 458.366 192.843H414.305C414.029 192.843 413.764 192.952 413.569 193.147C413.373 193.342 413.264 193.606 413.264 193.882V193.882C413.262 194.019 413.288 194.156 413.34 194.283C413.392 194.41 413.468 194.526 413.565 194.623C413.662 194.721 413.777 194.798 413.904 194.851C414.031 194.904 414.168 194.931 414.305 194.931V194.931Z" fill="white"/>
<path d="M435.037 198.885H458.396C458.672 198.885 458.937 198.776 459.132 198.581C459.327 198.386 459.437 198.121 459.437 197.846C459.437 197.57 459.327 197.306 459.132 197.111C458.937 196.916 458.672 196.806 458.396 196.806H435.037C434.76 196.806 434.495 196.916 434.3 197.111C434.105 197.306 433.995 197.57 433.995 197.846C433.995 198.121 434.105 198.386 434.3 198.581C434.495 198.776 434.76 198.885 435.037 198.885Z" fill="#2592E6"/>
<path d="M414.305 198.885H429.284C429.56 198.885 429.825 198.776 430.021 198.581C430.216 198.386 430.326 198.121 430.326 197.846C430.326 197.57 430.216 197.306 430.021 197.111C429.825 196.916 429.56 196.806 429.284 196.806H414.305C414.029 196.806 413.764 196.916 413.569 197.111C413.373 197.306 413.264 197.57 413.264 197.846V197.846C413.264 198.121 413.373 198.386 413.569 198.581C413.764 198.776 414.029 198.885 414.305 198.885Z" fill="#BEDCE0"/>
<path d="M444.098 202.839H458.367C458.643 202.839 458.908 202.729 459.103 202.534C459.298 202.339 459.408 202.075 459.408 201.799C459.408 201.524 459.298 201.259 459.103 201.064C458.908 200.869 458.643 200.76 458.367 200.76H444.098C443.96 200.759 443.824 200.785 443.697 200.836C443.569 200.888 443.453 200.964 443.355 201.061C443.258 201.158 443.18 201.273 443.127 201.399C443.074 201.526 443.047 201.662 443.047 201.799C443.047 201.937 443.074 202.073 443.127 202.199C443.18 202.326 443.258 202.441 443.355 202.538C443.453 202.635 443.569 202.711 443.697 202.763C443.824 202.814 443.96 202.84 444.098 202.839Z" fill="#D68D8D"/>
<path d="M142.386 165.661C143.131 165.431 143.823 165.054 144.42 164.553C145.017 164.051 145.508 163.436 145.862 162.742C146.217 162.048 146.429 161.291 146.485 160.514C146.542 159.737 146.442 158.957 146.191 158.219C145.218 155.305 140.507 154.654 131.679 157.986C122.852 161.318 116.496 160.959 115.951 163.815C115.406 166.671 117.752 168.089 122.073 167.536L125.888 176.464L142.386 165.661Z" fill="#365896"/>
<path d="M148.508 256.658L174.397 388.293H156.742L126.618 278.332L89.9737 386.388H73.3985L102.15 256.658H148.508Z" fill="#0A152B"/>
<path d="M131.29 164.952L142.619 163.115C143.088 165.474 143.339 167.871 143.369 170.275C144.747 172.005 145.439 174.18 145.315 176.386C145.198 180.272 143.086 183.75 139.203 184.488L139.281 191.618H125.44L127.445 173.996C127.445 173.996 132.069 172.859 131.29 164.952Z" fill="#D9956A"/>
<path d="M129.937 177.182C129.071 179.193 126.492 180.009 124.185 179.019C121.878 178.028 120.71 175.599 121.576 173.588C122.443 171.577 125.012 170.761 127.329 171.752C129.645 172.743 130.803 175.162 129.937 177.182Z" fill="#D9956A"/>
<path d="M123.046 174.074C123.046 174.074 126.657 171.966 128.74 176.464" stroke="#422424" stroke-width="0.39" stroke-miterlimit="10"/>
<path d="M124.857 176.23L125.441 173.607" stroke="#422424" stroke-width="0.39" stroke-miterlimit="10"/>
<path d="M138.347 184.527C137.112 184.638 135.867 184.498 134.687 184.115C133.508 183.733 132.419 183.116 131.485 182.302" stroke="#422424" stroke-width="0.39" stroke-miterlimit="10"/>
<path d="M137.724 168.711C137.748 170.113 138.211 171.471 139.047 172.597C139.099 172.656 139.136 172.726 139.156 172.802C139.176 172.877 139.179 172.957 139.164 173.033C139.149 173.11 139.117 173.182 139.07 173.245C139.022 173.307 138.961 173.358 138.892 173.394L137.724 174.006" stroke="#422424" stroke-width="0.39" stroke-miterlimit="10"/>
<path d="M135.641 175.366H141.403C141.403 175.366 139.563 180.34 138.191 180.379C136.818 180.417 135.641 175.366 135.641 175.366Z" fill="#422424"/>
<path d="M137.928 177.182C137.349 177.178 136.772 177.257 136.215 177.416C136.692 178.814 137.412 180.437 138.161 180.417C138.911 180.398 139.738 179.009 140.381 177.697C139.608 177.355 138.773 177.18 137.928 177.182V177.182Z" fill="#943232"/>
<path d="M134.19 168.439C133.655 168.507 133.373 169.488 133.568 170.635C133.618 170.968 133.71 171.295 133.84 171.606L134.628 171.082L134.229 172.257C134.301 172.362 134.396 172.447 134.508 172.507C134.62 172.566 134.745 172.597 134.872 172.597C135.407 172.519 135.689 171.538 135.504 170.402C135.319 169.265 134.726 168.323 134.19 168.439Z" fill="#0A152B"/>
<path d="M140.303 167.575C139.768 167.643 139.486 168.633 139.67 169.77C139.724 170.103 139.815 170.429 139.943 170.742L140.731 170.207C140.731 170.207 140.537 170.819 140.332 171.383C140.403 171.49 140.5 171.577 140.614 171.637C140.728 171.696 140.856 171.726 140.984 171.723C141.52 171.655 141.802 170.674 141.607 169.527C141.413 168.381 140.838 167.468 140.303 167.575Z" fill="#0A152B"/>
<path d="M131.854 167.108C133.004 166.744 134.238 166.744 135.388 167.108" stroke="#365896" stroke-width="0.75" stroke-linecap="round" stroke-linejoin="round"/>
<path d="M138.785 166.545C139.736 165.98 140.856 165.77 141.948 165.952" stroke="#365896" stroke-width="0.75" stroke-linecap="round" stroke-linejoin="round"/>
<path d="M126.024 188.753H139.388C139.863 188.755 140.323 188.916 140.695 189.21C141.068 189.504 141.33 189.914 141.441 190.375L141.928 192.434L159.798 198.739L175.254 224.464L181.999 216.469L192.831 221.083L186.262 237.86C185.588 239.581 184.534 241.127 183.178 242.384C181.822 243.64 180.199 244.575 178.43 245.118C176.661 245.66 174.792 245.797 172.963 245.518C171.134 245.239 169.392 244.55 167.866 243.505L153.384 233.576L150.6 250.849C150.6 250.849 160.489 259.281 149.422 259.281H102.539C102.243 259.277 101.951 259.208 101.685 259.079C101.419 258.949 101.185 258.763 100.999 258.533C100.813 258.303 100.68 258.035 100.61 257.748C100.54 257.461 100.534 257.162 100.592 256.872L113.07 196.136L123.504 192.124L124.01 190.297C124.132 189.856 124.395 189.467 124.758 189.189C125.122 188.91 125.566 188.757 126.024 188.753V188.753Z" fill="#D65353"/>
<path d="M175.254 224.464L168.451 233.168" stroke="#0A152B" stroke-width="0.43" stroke-miterlimit="10"/>
<path d="M153.403 233.576L155.486 219.781" stroke="#0A152B" stroke-width="0.43" stroke-miterlimit="10"/>
<path d="M180.938 226.659H137.052L144.391 191.618H188.277L180.938 226.659Z" fill="#EDD1C2"/>
<path d="M181.055 198.739H148.624C148.463 198.746 148.302 198.714 148.155 198.646C148.008 198.578 147.88 198.476 147.78 198.349C147.68 198.222 147.612 198.073 147.581 197.915C147.55 197.756 147.558 197.593 147.602 197.438C147.685 197.079 147.883 196.758 148.166 196.523C148.449 196.288 148.802 196.152 149.169 196.136H181.609C181.771 196.13 181.932 196.162 182.079 196.23C182.226 196.298 182.355 196.399 182.455 196.526C182.556 196.653 182.625 196.801 182.657 196.96C182.69 197.118 182.684 197.282 182.641 197.438V197.438C182.556 197.798 182.355 198.121 182.068 198.356C181.782 198.591 181.425 198.726 181.055 198.739V198.739Z" stroke="white" stroke-width="0.43" stroke-miterlimit="10"/>
<path d="M179.819 204.646H147.388C147.223 204.664 147.056 204.641 146.903 204.576C146.75 204.512 146.616 204.41 146.513 204.28C146.411 204.149 146.344 203.995 146.318 203.831C146.292 203.667 146.309 203.5 146.366 203.344C146.448 202.985 146.645 202.663 146.928 202.428C147.212 202.192 147.565 202.057 147.933 202.042H180.364C180.529 202.024 180.696 202.048 180.849 202.112C181.002 202.176 181.136 202.278 181.239 202.409C181.341 202.539 181.408 202.693 181.434 202.857C181.46 203.021 181.443 203.189 181.386 203.344C181.304 203.703 181.107 204.025 180.823 204.261C180.54 204.496 180.187 204.631 179.819 204.646V204.646Z" stroke="white" stroke-width="0.43" stroke-miterlimit="10"/>
<path d="M170.154 210.562H146.153C145.991 210.572 145.83 210.541 145.684 210.474C145.538 210.406 145.41 210.303 145.314 210.173C145.217 210.044 145.154 209.893 145.131 209.734C145.107 209.575 145.124 209.412 145.179 209.26C145.26 208.901 145.458 208.579 145.741 208.344C146.025 208.109 146.378 207.973 146.746 207.959H170.748C170.913 207.94 171.08 207.964 171.233 208.028C171.386 208.092 171.52 208.194 171.623 208.325C171.725 208.455 171.792 208.61 171.818 208.774C171.844 208.937 171.827 209.105 171.77 209.26V209.26C171.686 209.627 171.482 209.955 171.188 210.191C170.895 210.428 170.531 210.558 170.154 210.562Z" stroke="white" stroke-width="0.43" stroke-miterlimit="10"/>
<path d="M177.346 216.469H144.916C144.754 216.474 144.593 216.442 144.447 216.374C144.3 216.307 144.171 216.205 144.07 216.078C143.97 215.952 143.901 215.803 143.868 215.645C143.836 215.486 143.842 215.323 143.884 215.167V215.167C143.969 214.808 144.169 214.486 144.454 214.251C144.738 214.016 145.092 213.881 145.461 213.865H177.891C178.049 213.866 178.204 213.904 178.345 213.975C178.485 214.046 178.607 214.149 178.702 214.275C178.796 214.401 178.86 214.547 178.888 214.702C178.916 214.857 178.908 215.016 178.865 215.167V215.167C178.784 215.517 178.594 215.833 178.32 216.067C178.047 216.302 177.706 216.442 177.346 216.469V216.469Z" stroke="white" stroke-width="0.43" stroke-miterlimit="10"/>
<path d="M163.438 222.385H143.651C143.489 222.391 143.328 222.358 143.181 222.291C143.034 222.223 142.906 222.121 142.805 221.995C142.705 221.868 142.635 221.719 142.603 221.561C142.571 221.403 142.576 221.239 142.619 221.083V221.083C142.704 220.724 142.904 220.403 143.188 220.168C143.473 219.933 143.827 219.797 144.196 219.781H163.954C164.116 219.776 164.277 219.808 164.424 219.876C164.571 219.944 164.7 220.045 164.8 220.172C164.9 220.298 164.97 220.447 165.002 220.605C165.034 220.764 165.029 220.927 164.986 221.083V221.083C164.903 221.438 164.707 221.756 164.428 221.99C164.149 222.225 163.802 222.363 163.438 222.385Z" stroke="white" stroke-width="0.43" stroke-miterlimit="10"/>
<path d="M104.048 239.959C104.048 239.959 123.514 231.109 135.874 227.825C131.008 236.695 116.759 247.701 107.775 254.055C107.162 254.49 106.431 254.731 105.678 254.746C104.925 254.76 104.185 254.548 103.555 254.137C102.925 253.726 102.433 253.135 102.144 252.441C101.855 251.747 101.783 250.983 101.936 250.247L104.048 239.959Z" fill="#0A152B"/>
<path d="M113.051 196.136C107.951 197.68 103.629 200.896 96.962 208.493C90.2949 216.09 76.0167 230.147 83.3359 241.843C91.8814 255.551 123.815 237.229 135.894 227.825L129.597 216.041L109.284 221.996L116.973 210.601L113.051 196.136Z" fill="#D65353"/>
<path d="M97.4389 219.781C97.4389 219.781 100.787 219.092 107.084 221.083" stroke="#0A152B" stroke-width="0.43" stroke-miterlimit="10"/>
<path d="M129.597 216.041L134.619 214.244L139.281 204.384C139.515 203.885 139.859 203.445 140.287 203.097C140.715 202.749 141.216 202.501 141.753 202.373L148.187 200.809C148.462 200.74 148.749 200.732 149.028 200.782C149.307 200.833 149.572 200.942 149.806 201.103C150.04 201.264 150.237 201.472 150.384 201.715C150.531 201.957 150.624 202.227 150.659 202.509L151.184 206.89C151.226 207.245 151.148 207.604 150.963 207.909C150.778 208.215 150.496 208.451 150.162 208.58L145.101 210.523C145.101 210.523 149.481 211.232 151.33 211.495C151.593 211.495 151.593 212.466 151.33 212.554C149.259 212.738 147.178 212.777 145.101 212.67C145.101 212.67 142.181 218.363 138.093 218.499L132.984 222.385L129.597 216.041Z" fill="#D9956A"/>
<path d="M141.587 205.637L150.659 203.179" stroke="#422424" stroke-width="0.39" stroke-miterlimit="10"/>
<path d="M142.259 207.959L151.029 205.578" stroke="#422424" stroke-width="0.39" stroke-miterlimit="10"/>
<path d="M190.457 220.073V212.971L191.625 207.075C191.747 206.455 191.684 205.813 191.444 205.23C191.203 204.646 190.795 204.145 190.272 203.791L184.987 200.226C184.841 200.127 184.672 200.064 184.497 200.044C184.321 200.024 184.143 200.046 183.978 200.109C183.812 200.172 183.665 200.273 183.547 200.405C183.43 200.537 183.346 200.696 183.303 200.867L181.24 208.95C181.184 209.169 181.2 209.401 181.286 209.611C181.372 209.821 181.523 209.997 181.717 210.115L184.101 211.572L182.992 216.886L190.457 220.073Z" fill="#D9956A"/>
<path d="M184.101 211.573L186.71 213.146" stroke="#422424" stroke-width="0.39" stroke-miterlimit="10"/>
<path d="M181.697 207.172L187.498 210.552" stroke="#422424" stroke-width="0.39" stroke-miterlimit="10"/>
<path d="M182.262 204.646L188.072 208.036" stroke="#422424" stroke-width="0.39" stroke-miterlimit="10"/>
<path d="M183.001 202.237L188.812 205.627" stroke="#422424" stroke-width="0.39" stroke-miterlimit="10"/>
<path d="M145.101 236.957L128.614 247.332" stroke="#0A152B" stroke-width="0.43" stroke-miterlimit="10"/>
<path d="M87.0833 384.504L88.5432 390.614L104.972 397.813L105.751 401.398H70.1382L76.2602 384.504H87.0833Z" fill="#0A152B"/>
<path d="M122.073 167.536C124.085 167.259 126.05 166.71 127.913 165.904L123.494 170.878L122.073 167.536Z" fill="#0A152B"/>
<path d="M93.6723 226.679L129.597 216.002L135.874 227.825" stroke="#0A152B" stroke-width="0.43" stroke-miterlimit="10"/>
<path d="M109.284 221.957L118.346 208.862" stroke="#0A152B" stroke-width="0.43" stroke-miterlimit="10"/>
<path d="M497.727 348.015V327.76H480.071C479.201 324.438 477.892 321.246 476.178 318.269L488.665 305.815L474.319 291.495L461.831 303.95C458.852 302.226 455.658 300.903 452.332 300.015V282.402H431.99V300.015C428.661 300.903 425.463 302.226 422.481 303.95L410.003 291.495L395.657 305.815L408.135 318.269C406.408 321.246 405.082 324.437 404.193 327.76H386.547V348.015H404.193C405.082 351.339 406.408 354.53 408.135 357.507L395.657 369.961L410.003 384.28L422.481 371.826C425.463 373.55 428.661 374.873 431.99 375.761V393.373H452.283V375.761C455.61 374.873 458.804 373.55 461.783 371.826L474.27 384.28L488.616 369.961L476.129 357.507C477.843 354.529 479.152 351.338 480.022 348.015H497.727ZM461.16 337.893C461.16 341.649 460.044 345.321 457.953 348.444C455.862 351.568 452.89 354.002 449.413 355.439C445.937 356.877 442.111 357.253 438.42 356.52C434.729 355.787 431.338 353.978 428.677 351.322C426.016 348.666 424.204 345.282 423.469 341.598C422.735 337.914 423.112 334.095 424.552 330.625C425.992 327.154 428.431 324.188 431.56 322.101C434.69 320.014 438.368 318.9 442.132 318.9C447.177 318.906 452.014 320.908 455.581 324.469C459.148 328.029 461.155 332.857 461.16 337.893V337.893Z" fill="#FFDD55"/>
<path d="M388.484 181.127L386.128 190.365C386.128 190.365 380.882 184.536 381.262 180.213L388.484 181.127Z" fill="#0A152B"/>
<path d="M339.225 378.364L337.94 386.661L324.314 392.985C323.136 393.547 322.222 394.543 321.764 395.763L319.73 401.213H351.742L349.99 387.399L350.963 378.364H339.225Z" fill="#D68D8D"/>
<path d="M342.632 386.816C342.632 386.384 342.546 385.956 342.38 385.557C342.214 385.158 341.971 384.796 341.665 384.491C341.358 384.185 340.994 383.944 340.594 383.779C340.194 383.615 339.765 383.531 339.332 383.532H338.427L337.94 386.66L324.314 392.985C323.136 393.547 322.222 394.543 321.764 395.763L319.73 401.213H351.742L349.99 387.399L350.058 386.816H342.632Z" fill="#0A152B"/>
<path d="M319.691 401.242H351.742L351.342 398.085H320.869L319.691 401.242Z" fill="#4A6CAB"/>
<path d="M411.892 378.364L412.485 386.67L398.859 392.849C397.649 393.392 396.704 394.391 396.231 395.627L394.129 401.398H426.18L424.574 387.535L423.659 378.481L411.892 378.364Z" fill="#D68D8D"/>
<path d="M424.525 387.535L424.447 386.699H416.291L416.223 386.233C416.112 385.449 415.721 384.732 415.122 384.214C414.522 383.696 413.755 383.413 412.962 383.416H412.281L412.515 386.67L398.888 392.849C397.679 393.391 396.734 394.39 396.261 395.627L394.158 401.398H426.209L424.525 387.535Z" fill="#0A152B"/>
<path d="M394.09 401.398H426.141L425.771 398.231L395.297 397.91L394.09 401.398Z" fill="#4A6CAB"/>
<path d="M345.581 298.878H324.236L326.981 288.523H342.836L345.581 298.878ZM327.497 296.372H342.32L340.909 291.029H328.918L327.497 296.372Z" fill="#0A152B"/>
<path d="M310.912 301.939H358.253V323.457C358.253 324.552 357.817 325.602 357.042 326.376C356.266 327.15 355.214 327.585 354.117 327.585H315.049C313.952 327.585 312.899 327.15 312.124 326.376C311.348 325.602 310.912 324.552 310.912 323.457V301.939Z" fill="#6E9296"/>
<path d="M314.455 295.158H354.749C356.089 295.158 357.374 295.689 358.321 296.634C359.268 297.58 359.8 298.862 359.8 300.2V305.057C359.8 305.67 359.556 306.258 359.122 306.692C358.688 307.126 358.098 307.369 357.484 307.369H311.671C311.057 307.369 310.467 307.126 310.033 306.692C309.599 306.258 309.354 305.67 309.354 305.057V300.2C309.354 299.533 309.487 298.874 309.744 298.259C310 297.644 310.377 297.086 310.851 296.617C311.325 296.148 311.888 295.778 312.507 295.527C313.125 295.277 313.787 295.151 314.455 295.158V295.158Z" fill="#496163"/>
<path d="M321.063 301.939H317.073V307.379H321.063V301.939Z" fill="white"/>
<path d="M352.082 301.939H348.092V307.379H352.082V301.939Z" fill="white"/>
<path d="M321.063 301.939H317.073V312.79H321.063V301.939Z" stroke="#0A152B" stroke-width="0.43" stroke-miterlimit="10"/>
<path d="M352.082 301.939H348.092V312.79H352.082V301.939Z" stroke="#0A152B" stroke-width="0.43" stroke-miterlimit="10"/>
<path d="M365.144 257.737V268.229L345.464 315.432C344.056 318.818 343.119 322.381 342.681 326.021L336.121 380.832H354.01L362.205 335.746C362.907 331.881 364.033 328.105 365.563 324.486L382.109 282.402H385.807L408.777 380.832H425.907L410.013 267.451L409.04 256.959L365.144 257.737Z" fill="#4A6CAB"/>
<path d="M365.144 262.439H409.565" stroke="#0A152B" stroke-width="0.43" stroke-miterlimit="10"/>
<path d="M383.939 282.402L382.527 258.912" stroke="#0A152B" stroke-width="0.43" stroke-miterlimit="10"/>
<path d="M378.634 259.388L379.422 270.861C379.489 271.805 379.911 272.689 380.605 273.335C381.298 273.98 382.211 274.339 383.16 274.339H383.452" stroke="#0A152B" stroke-width="0.43" stroke-miterlimit="10"/>
<path d="M400.367 259.388C400.367 259.388 398.995 273.873 410.976 274.339" stroke="#0A152B" stroke-width="0.43" stroke-miterlimit="10"/>
<path d="M370.711 259.854C370.711 259.854 371.033 274.155 362.438 274.718" stroke="#0A152B" stroke-width="0.43" stroke-miterlimit="10"/>
<path d="M373.067 282.402L394.256 282.713" stroke="#0A152B" stroke-width="0.43" stroke-miterlimit="10"/>
<path d="M377.855 282.713L358.555 327.585L350.554 377.694" stroke="#0A152B" stroke-width="0.43" stroke-miterlimit="10"/>
<path d="M407.609 273.746L421.002 377.694" stroke="#0A152B" stroke-width="0.43" stroke-miterlimit="10"/>
<path d="M365.144 260.933L409.964 266.859L409.079 256.959L365.144 257.737V260.933Z" fill="#0A152B"/>
<path d="M351.81 234.499L349.376 246.555L332.743 279.828L329.696 290.378C329.623 290.637 329.61 290.909 329.659 291.173C329.709 291.437 329.819 291.687 329.981 291.901C330.143 292.116 330.353 292.29 330.594 292.41C330.835 292.53 331.101 292.593 331.371 292.593H338.369C338.629 292.593 338.887 292.539 339.125 292.433C339.363 292.327 339.576 292.172 339.75 291.979C339.925 291.786 340.057 291.558 340.137 291.311C340.218 291.063 340.245 290.802 340.218 290.543L339.498 283.588L366.322 251.723L366.477 234.499H351.81Z" fill="#D68D8D"/>
<path d="M334.32 282.402C334.32 282.402 335.838 285.773 334.038 290.708H335.799C336.039 290.708 336.276 290.756 336.496 290.848C336.717 290.94 336.918 291.075 337.086 291.244C337.255 291.414 337.388 291.616 337.477 291.837C337.567 292.059 337.612 292.296 337.61 292.535V292.583" stroke="#422424" stroke-width="0.39" stroke-miterlimit="10"/>
<path d="M334.904 287.493H339.799" stroke="#422424" stroke-width="0.39" stroke-miterlimit="10"/>
<path d="M337.804 287.493L338.914 292.496" stroke="#422424" stroke-width="0.39" stroke-miterlimit="10"/>
<path d="M335.829 287.493L336.578 290.883" stroke="#422424" stroke-width="0.39" stroke-miterlimit="10"/>
<path d="M350.603 240.474C350.603 240.474 354.74 243.388 366.37 245.914L366.477 234.489H351.81L350.603 240.474Z" fill="#0A152B"/>
<path d="M381.223 201.071C381.223 201.071 396.874 201.207 404.524 205.277C412.174 209.348 424.768 234.013 424.768 234.013L409.702 234.985L412.816 256.911C412.868 257.281 412.839 257.657 412.733 258.015C412.626 258.372 412.444 258.703 412.199 258.985C411.954 259.266 411.651 259.492 411.311 259.647C410.97 259.802 410.601 259.883 410.227 259.884H362.789C358.01 259.884 364.278 255.998 364.278 255.998L362.867 238.696C362.867 238.696 352.355 240.726 346.243 238.064L355.83 213.204C356.772 210.781 358.317 208.636 360.32 206.974C362.322 205.312 364.716 204.186 367.276 203.703L381.223 201.071Z" fill="#6E9296"/>
<path d="M386.041 197.331L390.304 201.683L382.936 210.407L379.052 205.88L376.58 210.057L371.198 202.654L374.643 199.244L386.041 197.331Z" fill="#496163"/>
<path d="M401.448 235.422L398.645 218.276" stroke="#0A152B" stroke-width="0.43" stroke-miterlimit="10"/>
<path d="M362.876 238.638L361.105 218.276" stroke="#0A152B" stroke-width="0.43" stroke-miterlimit="10"/>
<path d="M379.666 207.774L383.938 257.737" stroke="#0A152B" stroke-width="0.43" stroke-miterlimit="10"/>
<path d="M398.83 254.21H372.463L369.047 223.094H395.414L398.83 254.21Z" fill="white"/>
<path d="M383.929 222.385C383.833 221.936 383.589 221.532 383.236 221.238C382.883 220.944 382.442 220.776 381.982 220.762C381.769 220.758 381.557 220.798 381.36 220.878C381.162 220.959 380.983 221.079 380.834 221.23C380.685 221.382 380.568 221.563 380.491 221.762C380.414 221.96 380.378 222.172 380.386 222.385H377.719L377.953 224.561H386.839L386.596 222.385H383.929Z" fill="#D4780E"/>
<path d="M408.767 380.832H425.868L425.177 375.896H407.609L408.767 380.832Z" fill="#6B89BF"/>
<path d="M354.905 375.896H336.714L336.121 380.832H354.01L354.905 375.896Z" fill="#6B89BF"/>
<path d="M421.586 234.217L401.448 235.471L401.954 239.473L382.693 236.102C381.92 234.522 380.767 233.159 379.337 232.133C377.907 231.107 376.244 230.451 374.498 230.225C374.425 230.216 374.351 230.232 374.289 230.271C374.227 230.31 374.18 230.369 374.156 230.439C374.132 230.508 374.133 230.583 374.158 230.652C374.183 230.721 374.23 230.779 374.293 230.817C375.45 231.48 376.357 232.504 376.872 233.732L371.733 233.926L369.291 233.372C369.193 233.352 369.092 233.355 368.996 233.381C368.899 233.407 368.81 233.455 368.736 233.521C368.661 233.586 368.603 233.669 368.566 233.761C368.529 233.853 368.514 233.953 368.522 234.052L369.047 239.939C369.078 240.292 369.224 240.625 369.463 240.887C369.703 241.148 370.022 241.324 370.371 241.387C371.886 241.634 373.42 241.758 374.955 241.756C377.052 242.838 379.42 243.287 381.768 243.048C389.751 248.572 398.686 252.58 408.125 254.871C423.153 258.252 424.214 246.895 421.586 234.217Z" fill="#D68D8D"/>
<path d="M368.619 235.276C370.441 235.88 372.354 236.163 374.273 236.112" stroke="#422424" stroke-width="0.39" stroke-miterlimit="10"/>
<path d="M368.784 237.142C370.603 237.746 372.513 238.029 374.429 237.977" stroke="#422424" stroke-width="0.39" stroke-miterlimit="10"/>
<path d="M368.94 239.007C370.762 239.611 372.676 239.893 374.595 239.842" stroke="#422424" stroke-width="0.39" stroke-miterlimit="10"/>
<path d="M401.964 239.424L411.784 240.862" stroke="#422424" stroke-width="0.39" stroke-miterlimit="10"/>
<path d="M369.932 178.659C369.932 178.659 368.959 184.847 368.122 189.229C367.285 193.61 369.095 197.525 374.633 197.292V200.818L379.033 205.277L386.478 199.177L386.011 187.033C386.011 187.033 382.118 185.858 382.556 180.145L369.932 178.659Z" fill="#D68D8D"/>
<path d="M375.383 197.331C376.642 197.304 377.875 196.977 378.981 196.377C380.087 195.777 381.032 194.921 381.739 193.882" stroke="#422424" stroke-width="0.39" stroke-miterlimit="10"/>
<path d="M388.279 190.122C387.004 191.696 384.98 192.172 383.744 191.191C382.508 190.21 382.537 188.111 383.812 186.538C385.087 184.964 387.112 184.478 388.338 185.469C389.564 186.46 389.545 188.539 388.279 190.122Z" fill="#D68D8D"/>
<path d="M383.938 188.957C384.172 187.305 386.917 185.654 387.997 187.305" stroke="#422424" stroke-width="0.39" stroke-miterlimit="10"/>
<path d="M386.547 189.141L385.038 187.276" stroke="#422424" stroke-width="0.39" stroke-miterlimit="10"/>
<path d="M372.375 185.255L372.959 185.547C373.014 185.34 373.053 185.128 373.076 184.915C373.193 183.856 372.872 182.972 372.366 182.972C371.86 182.972 371.392 183.798 371.237 184.847C371.081 185.897 371.451 186.79 371.957 186.79C372.268 186.79 372.59 186.479 372.804 185.974L372.375 185.255Z" fill="#28364F"/>
<path d="M377.826 185.382L378.41 185.663C378.474 185.458 378.516 185.246 378.536 185.032C378.653 183.983 378.332 183.089 377.816 183.089C377.3 183.089 376.843 183.924 376.697 184.974C376.551 186.023 376.901 186.917 377.407 186.917C377.729 186.917 378.04 186.596 378.264 186.101L377.826 185.382Z" fill="#28364F"/>
<path d="M374.4 185.187L373.32 189.384L376.23 189.141" stroke="#422424" stroke-width="0.39" stroke-miterlimit="10"/>
<path d="M372.58 191.327C373.603 191.553 374.666 191.535 375.681 191.273C376.696 191.011 377.634 190.514 378.42 189.821" stroke="#422424" stroke-width="0.39" stroke-miterlimit="10"/>
<path d="M369.835 178.776L388.678 181.146C388.678 181.146 390.956 172.315 380.746 170.946C372.512 169.838 370.186 176.6 369.835 178.776Z" fill="#2592E6"/>
<path d="M381.135 171.004L380.746 170.946C372.512 169.838 370.186 176.6 369.835 178.776L378.916 179.912L381.135 171.004Z" fill="#6E9296"/>
<path d="M378.916 179.912L361.222 177.678C361.287 177.25 361.516 176.863 361.861 176.601C362.206 176.338 362.64 176.219 363.071 176.269L379.257 178.309L378.916 179.912Z" fill="#0A152B"/>
<path d="M91.0933 250.567C91.0933 250.567 88.7768 247.148 83.8909 248.44C79.0049 249.732 78.7811 253.841 78.7811 255.784C78.7811 257.727 79.0147 260.476 75.6568 260.641C75.0824 260.655 74.5166 260.783 73.993 261.02C73.4695 261.256 72.9989 261.595 72.6093 262.016C72.2197 262.438 71.9191 262.933 71.7253 263.473C71.5315 264.013 71.4485 264.586 71.4814 265.159C71.4814 266.742 71.2478 269.268 69.126 270.385H86.363L91.0933 250.567Z" fill="#6E4C2E"/>
<path d="M87.1999 266.975L90.8595 251.646C89.8817 252.148 88.9911 252.804 88.2218 253.589C83.0731 258.873 85.0683 264.207 87.1999 266.975Z" fill="#0A152B"/>
<path d="M93.2536 254.23C93.2193 254.956 92.9722 255.656 92.543 256.243C92.1137 256.83 91.5212 257.278 90.839 257.532C90.1567 257.786 89.4148 257.834 88.7053 257.671C87.9957 257.508 87.3498 257.141 86.8476 256.614C86.3454 256.088 86.0091 255.426 85.8803 254.711C85.7516 253.996 85.8361 253.258 86.1235 252.59C86.4108 251.923 86.8882 251.354 87.4965 250.954C88.1048 250.555 88.8173 250.343 89.5454 250.344C90.5522 250.372 91.5071 250.796 92.2018 251.524C92.8965 252.252 93.2746 253.225 93.2536 254.23Z" fill="#0A152B"/>
<path d="M107.415 257.134C105.771 250.791 95.5315 245.564 89.0591 252.199C82.5867 258.835 87.4726 265.586 89.5944 267.179L107.415 257.134Z" fill="#6E4C2E"/>
<path d="M99.9111 355.729H93.0396L107.805 395.239H44.7447L59.5096 355.729H52.6381L35.5762 401.398H116.983L99.9111 355.729Z" fill="#496163"/>
<path d="M112.778 375.188L109.012 389.361L123.368 396.249L124.964 396.647C125.995 396.905 126.896 397.53 127.496 398.405C128.097 399.281 128.356 400.345 128.224 401.398H92.8451C92.6055 401.396 92.37 401.336 92.1595 401.222C91.9491 401.107 91.7704 400.943 91.6393 400.742C91.5081 400.542 91.4288 400.313 91.4082 400.075C91.3876 399.836 91.4265 399.597 91.5214 399.377L95.9596 389.206L99.6387 375.188H112.778Z" fill="#DE6767"/>
<path d="M97.6629 382.551L95.9109 389.206L91.5214 399.377C91.4265 399.597 91.3876 399.836 91.4082 400.075C91.4288 400.313 91.5081 400.542 91.6393 400.742C91.7704 400.943 91.9491 401.107 92.1595 401.222C92.37 401.336 92.6055 401.396 92.8451 401.398H128.224C128.356 400.345 128.097 399.281 127.496 398.406C126.896 397.53 125.995 396.905 124.964 396.647L123.368 396.249L109.012 389.361L110.822 382.561L97.6629 382.551Z" fill="#0A152B"/>
<path d="M141.189 335.202L161.959 377.461H137.626C137.626 377.461 133.733 372.137 133.733 366.774C133.733 361.412 126.141 357.905 124.973 353.621C123.806 349.337 115.99 338.738 115.99 338.738L111.269 327.935H129.577C132 327.939 134.373 328.623 136.426 329.907C138.479 331.192 140.129 333.027 141.189 335.202V335.202Z" fill="#0A152B"/>
<path d="M59.5097 355.729H52.6382L47.4116 369.708C49.1092 371.084 51.0505 372.128 53.1346 372.788L59.5097 355.729Z" fill="#0A152B"/>
<path d="M99.9111 355.729H93.0396L99.7164 373.585H106.588L99.9111 355.729Z" fill="#0A152B"/>
<path d="M78.5472 293.38L105.994 366.813H58.6239C55.2655 366.808 51.9882 365.783 49.2274 363.874C46.4667 361.966 44.3532 359.263 43.1679 356.127L23.3905 303.192C22.9813 302.093 22.844 300.912 22.9905 299.749C23.137 298.585 23.5629 297.475 24.232 296.511C24.901 295.548 25.7934 294.76 26.8331 294.215C27.8728 293.67 29.0291 293.383 30.2036 293.38H78.5472Z" fill="#496163"/>
<path d="M103.152 359.197L78.5471 293.38H30.2229C29.4092 293.371 28.5998 293.499 27.8286 293.759C27.8982 294.373 28.042 294.976 28.2569 295.556L48.0342 348.462C49.2196 351.599 51.333 354.301 54.0937 356.21C56.8545 358.118 60.1318 359.143 63.4902 359.148L103.152 359.197Z" fill="#0A152B"/>
<path d="M47.2949 353.378H63.2667" stroke="#0A152B" stroke-width="0.43" stroke-miterlimit="10"/>
<path d="M93.7891 327.974H115.075C116.872 327.975 118.643 328.4 120.244 329.214C121.846 330.027 123.232 331.207 124.289 332.657C125.347 334.107 126.047 335.785 126.332 337.556C126.616 339.327 126.478 341.14 125.927 342.847L114.734 377.461H91.093C91.093 377.461 92.3486 372.603 94.9862 370.252C97.6239 367.901 94.2173 364.618 95.6967 361.014C97.0107 357.818 98.5193 356.972 99.0643 353.971H58.5266C50.2925 353.971 39.9366 341.643 54.8767 319.085H91.3558L90.6551 325.079L93.7891 327.974Z" fill="#4A6CAB"/>
<path d="M55.0811 319.911C55.0811 319.911 80.1921 321.018 86.2265 327.974H93.8766L90.7426 325.06L91.4434 319.066L55.0811 319.911Z" fill="#0A152B"/>
<path d="M79.355 327.974H92.9325" stroke="#0A152B" stroke-width="0.43" stroke-miterlimit="10"/>
<path d="M67.9771 319.085L64.1812 331.238C64.0228 331.746 63.9861 332.284 64.0739 332.809C64.1618 333.334 64.3718 333.83 64.687 334.259C65.0023 334.688 65.414 335.038 65.889 335.279C66.3641 335.52 66.8893 335.647 67.4223 335.649H104.777C105.635 335.648 106.481 335.846 107.249 336.229C108.016 336.611 108.684 337.166 109.2 337.85C109.715 338.534 110.064 339.329 110.219 340.171C110.374 341.013 110.33 341.879 110.092 342.701L100.767 374.76" stroke="#0A152B" stroke-width="0.43" stroke-miterlimit="10"/>
<path d="M115.99 335.056L105.011 342.225" stroke="#0A152B" stroke-width="0.43" stroke-miterlimit="10"/>
<path d="M117.129 337.29L103.522 351.853" stroke="#0A152B" stroke-width="0.43" stroke-miterlimit="10"/>
<path d="M75.2577 329.072L59.5098 339.875" stroke="#0A152B" stroke-width="0.43" stroke-miterlimit="10"/>
<path d="M69.3593 330.004L57.8258 333.531" stroke="#0A152B" stroke-width="0.43" stroke-miterlimit="10"/>
<path d="M75.2574 300.938C72.3959 295.274 70.1768 290.67 70.1768 290.67" stroke="#0A152B" stroke-width="0.44" stroke-miterlimit="10"/>
<path d="M111.27 295.799C111.27 295.799 107.435 288.717 106.199 286.337C104.963 283.957 103.658 280.333 93.653 277.04C83.6475 273.746 70.2355 272.814 65.5831 285.084C62.2336 294.501 59.378 304.086 57.0279 313.8L53.8257 317.074C53.5972 317.315 53.4451 317.617 53.3884 317.944C53.3318 318.27 53.3732 318.606 53.5074 318.91C53.6416 319.213 53.8626 319.47 54.1426 319.648C54.4227 319.826 54.7493 319.917 55.0813 319.911H92.0665L111.27 295.799Z" fill="#D9956A"/>
<path d="M111.269 295.799L117.625 307.641L140.011 317.356C140.011 317.356 152.236 316.695 154.299 323.359H106.199L95.6773 301.482L111.269 295.799Z" fill="#DE6767"/>
<path d="M82.1776 314.033C80.231 310.507 71.9678 294.342 71.9678 294.342L76.6688 314.053C77.0694 315.716 78.0203 317.197 79.3679 318.254C80.7154 319.312 82.3808 319.885 84.095 319.882H86.7327C84.8989 318.199 83.3594 316.222 82.1776 314.033V314.033Z" fill="#0A152B"/>
<path d="M72.7174 309.574L59.5098 315.763" stroke="#0A152B" stroke-width="0.43" stroke-miterlimit="10"/>
<path d="M97.1275 285.501L96.2418 292.136C96.2418 292.136 97.6531 297.052 96.2418 301.259" stroke="#0A152B" stroke-width="0.43" stroke-miterlimit="10"/>
<path d="M94.0127 262.672L96.6893 256.678L107.396 257.154C107.694 258.31 107.694 259.524 107.396 260.68C106.928 262.788 106.198 263.731 105.975 266.315C105.751 268.899 106.169 276.476 97.1078 275.476L93.2146 282.344C93.2146 282.344 86.7325 283.889 83.8418 275.019L94.0127 262.672Z" fill="#DE6767"/>
<path d="M94.918 265.479C94.8528 266.278 94.5452 267.039 94.0362 267.659C93.5272 268.279 92.8409 268.73 92.0688 268.951C91.2966 269.172 90.4754 269.153 89.7144 268.896C88.9534 268.639 88.2889 268.157 87.8093 267.514C87.3298 266.871 87.058 266.097 87.0302 265.296C87.0024 264.495 87.2199 263.704 87.6537 263.029C88.0876 262.355 88.7171 261.828 89.4585 261.519C90.1999 261.211 91.0178 261.135 91.8034 261.302C92.768 261.451 93.6352 261.972 94.2179 262.754C94.8006 263.536 95.0521 264.514 94.918 265.479V265.479Z" fill="#DE6767"/>
<path d="M89.5942 262.944C89.5942 262.944 91.8522 262.322 93.2538 265.645" stroke="#422424" stroke-width="0.39" stroke-miterlimit="10"/>
<path d="M90.188 265.178L91.6966 263.478" stroke="#422424" stroke-width="0.39" stroke-miterlimit="10"/>
<path d="M96.2417 269.754C97.4511 269.754 98.4316 268.775 98.4316 267.568C98.4316 266.361 97.4511 265.382 96.2417 265.382C95.0322 265.382 94.0518 266.361 94.0518 267.568C94.0518 268.775 95.0322 269.754 96.2417 269.754Z" fill="#D65353"/>
<path d="M96.4753 275.301C96.4753 275.301 92.5822 274.679 91.1514 272.484" stroke="#422424" stroke-width="0.39" stroke-miterlimit="10"/>
<path d="M75.7441 265.372L73.8657 270.405" stroke="white" stroke-width="0.44" stroke-miterlimit="10"/>
<path d="M78.9952 265.372L77.1167 270.405" stroke="white" stroke-width="0.44" stroke-miterlimit="10"/>
<path d="M82.2456 265.372L80.3574 270.405" stroke="white" stroke-width="0.44" stroke-miterlimit="10"/>
<path d="M85.4966 265.372L83.6084 270.405" stroke="white" stroke-width="0.44" stroke-miterlimit="10"/>
<path d="M103.97 264.08L103.366 264.323C103.352 264.12 103.352 263.915 103.366 263.711C103.464 262.691 103.921 261.885 104.398 261.904C104.875 261.924 105.186 262.759 105.099 263.779C105.011 264.799 104.554 265.596 104.067 265.576C103.775 265.576 103.542 265.236 103.425 264.741L103.97 264.08Z" fill="#0A152B"/>
<path d="M98.8212 263.886L98.2275 264.119C98.208 263.916 98.208 263.711 98.2275 263.507C98.3151 262.536 98.7823 261.691 99.2592 261.71C99.7361 261.729 100.048 262.565 99.96 263.575C99.8724 264.586 99.4052 265.402 98.9283 265.382C98.6266 265.382 98.393 265.032 98.2859 264.547L98.8212 263.886Z" fill="#0A152B"/>
<path d="M102.334 262.594C102.088 263.714 102.187 264.882 102.617 265.946C102.656 266.016 102.675 266.096 102.672 266.177C102.669 266.257 102.644 266.336 102.6 266.403C102.556 266.471 102.495 266.526 102.422 266.562C102.35 266.597 102.269 266.613 102.188 266.606L100.855 266.499" stroke="#0A152B" stroke-width="0.44" stroke-miterlimit="10"/>
<path d="M102.948 268.598C101.109 269.051 99.1669 268.798 97.5068 267.889" stroke="#422424" stroke-width="0.39" stroke-miterlimit="10"/>
<path d="M97.507 259.757C97.8672 259.204 101.254 260.058 101.293 260.593C101.332 261.127 97.0009 260.505 97.507 259.757Z" fill="#6E4C2E"/>
<path d="M107.026 260.651C106.724 260.068 103.269 260.583 103.133 261.117C102.997 261.652 107.445 261.467 107.026 260.651Z" fill="#6E4C2E"/>
<path d="M99.2008 352.717C99.5122 348.647 96.6897 343.479 101.556 339.875" stroke="#0A152B" stroke-width="0.43" stroke-miterlimit="10"/>
<path d="M91.5214 399.377C91.4265 399.597 91.3876 399.836 91.4082 400.074C91.4288 400.313 91.5081 400.542 91.6393 400.742C91.7704 400.942 91.9491 401.107 92.1595 401.221C92.37 401.336 92.6055 401.396 92.8451 401.398H128.224C128.341 400.452 128.139 399.495 127.65 398.677H91.8231L91.5214 399.377Z" fill="#6B89BF"/>
<path d="M92.5432 373.584C91.9187 374.828 91.4167 376.13 91.0444 377.47H114.734L115.99 373.584H92.5432Z" fill="#6B89BF"/>
<path d="M93.2536 294.342L100.767 309.574L132.546 319.678C132.546 319.678 143.252 317.093 149.014 323.563H99.0058C93.166 323.563 87.3262 323.204 82.1775 314.043C79.9486 310.109 77.418 305.232 75.2573 300.948L93.2536 294.342Z" fill="#DE6767"/>
<path d="M85.3603 278.332L93.2538 294.342" stroke="#0A152B" stroke-width="0.43" stroke-miterlimit="10"/>
<path d="M89.8474 269.161C90.4495 269.161 90.9375 268.674 90.9375 268.073C90.9375 267.472 90.4495 266.985 89.8474 266.985C89.2454 266.985 88.7573 267.472 88.7573 268.073C88.7573 268.674 89.2454 269.161 89.8474 269.161Z" stroke="#943232" stroke-miterlimit="10"/>
<path d="M199.46 400.873H111.629L138.113 330.014H199.46V400.873Z" fill="#496163"/>
<path d="M136.497 334.337L199.46 357.254V330.014H138.113L136.497 334.337Z" fill="#0A152B"/>
<path d="M199.46 331.267H104.631C103.599 331.267 102.609 330.858 101.879 330.129C101.148 329.4 100.738 328.412 100.738 327.381C100.738 326.351 101.148 325.363 101.879 324.634C102.609 323.905 103.599 323.496 104.631 323.496H199.46V331.267Z" fill="#496163"/>
<path d="M3 401.398H514" stroke="#28364F" stroke-width="1.25" stroke-miterlimit="10"/>
<path d="M126.92 98.2407H67.1986C66.068 98.2407 64.9837 98.689 64.1842 99.487C63.3847 100.285 62.9356 101.367 62.9356 102.496V143.472C62.9356 144.601 63.3847 145.683 64.1842 146.481C64.9837 147.279 66.068 147.727 67.1986 147.727H95.1906C95.7297 147.728 96.2594 147.869 96.7271 148.136C97.1949 148.404 97.5845 148.789 97.8575 149.253L106.812 164.553C106.926 164.718 107.089 164.844 107.277 164.913C107.466 164.983 107.672 164.992 107.866 164.94C108.06 164.887 108.233 164.776 108.362 164.622C108.49 164.468 108.568 164.277 108.583 164.077V150.817C108.582 150.411 108.661 150.01 108.815 149.635C108.97 149.26 109.197 148.92 109.483 148.633C109.77 148.346 110.111 148.118 110.486 147.963C110.861 147.807 111.263 147.727 111.669 147.727H126.92C128.051 147.727 129.135 147.279 129.935 146.481C130.734 145.683 131.183 144.601 131.183 143.472V102.496C131.183 101.367 130.734 100.285 129.935 99.487C129.135 98.689 128.051 98.2407 126.92 98.2407Z" stroke="#BEDCE0" stroke-width="1.24" stroke-miterlimit="10"/>
<path d="M109.264 117.981C110.15 120.524 110.259 123.273 109.578 125.878C108.897 128.483 107.457 130.828 105.439 132.616C103.422 134.403 100.918 135.553 98.2457 135.919C95.5731 136.285 92.8518 135.851 90.4266 134.672C88.0014 133.493 85.9813 131.622 84.6223 129.296C83.2634 126.97 82.6267 124.294 82.7929 121.607C82.9591 118.919 83.9208 116.342 85.5561 114.2C87.1913 112.059 89.4266 110.45 91.9787 109.578C95.3877 108.413 99.1202 108.643 102.36 110.217C105.599 111.792 108.082 114.584 109.264 117.981V117.981Z" fill="#EBBC3B"/>
<path d="M106.257 113.065C106.874 113.712 107.425 114.418 107.902 115.173C115.533 113.376 120.282 113.23 121.285 113.843C120.71 115.504 112.642 120.75 97.6239 125.918C82.6059 131.086 73.0287 131.931 71.5395 130.979C71.9289 129.852 75.7831 127.093 82.8979 123.79C82.8101 122.902 82.8101 122.007 82.8979 121.119C75.7247 124.315 68.0551 128.57 69.1744 131.805C71.121 137.585 97.3319 128.648 98.4414 128.259C99.551 127.871 125.694 118.807 123.669 113.026C122.55 109.791 113.878 111.122 106.257 113.065Z" fill="#2592E6"/>
<path d="M202.253 307.505C202.253 307.505 213.086 280.498 246.266 261.001C246.266 261.001 254.734 238.968 266.871 231.293C270.929 228.729 275.893 232.964 274.141 237.433L262.033 268.102H297.578L202.253 307.505Z" fill="#2785CE"/>
<path d="M296.867 143.55C294.152 123.956 277.1 98.7556 244.144 98.7556C211.188 98.7556 194.146 123.956 191.43 143.55C188.763 162.805 193.786 173.928 203.353 189.588C213.826 206.715 217.787 230.302 217.787 230.302H270.511C270.511 230.302 274.472 206.715 284.945 189.588C294.512 173.928 299.534 162.805 296.867 143.55Z" fill="#FFDD55"/>
<path d="M244.144 229.292C234.868 229.4 225.594 228.94 216.375 227.913L221.641 264.119C221.797 265.217 231.88 266.062 244.144 266.062C256.407 266.062 266.529 265.188 266.656 264.119L271.922 227.913C262.699 228.94 253.423 229.401 244.144 229.292V229.292Z" fill="#0A152B"/>
<path d="M244.153 272.309C252.082 272.309 258.51 267.733 258.51 262.089C258.51 256.445 252.082 251.869 244.153 251.869C236.225 251.869 229.797 256.445 229.797 262.089C229.797 267.733 236.225 272.309 244.153 272.309Z" fill="#0A152B"/>
<path d="M258.169 184.731L260.622 167.895C260.729 167.244 260.836 166.574 260.943 165.894C262.763 153.401 261.916 141.083 258.695 141.083C256.68 141.083 254.519 146.095 253.02 153.09C252.485 146.095 251.025 141.083 249.01 141.083C246.996 141.083 245.185 146.095 244.144 153.09C243.17 146.095 241.311 141.083 239.277 141.083C237.243 141.083 235.803 146.095 235.267 153.09C233.759 146.095 231.598 141.083 229.593 141.083C226.352 141.083 225.525 153.401 227.345 165.894C227.452 166.574 227.549 167.244 227.666 167.895L230.099 184.731" stroke="white" stroke-width="2" stroke-linecap="round" stroke-linejoin="round"/>
<path d="M219.685 87.3506L209.728 60.062" stroke="#D4780E" stroke-width="3" stroke-miterlimit="10"/>
<path d="M198.165 99.7465L179.459 77.4999" stroke="#D4780E" stroke-width="3" stroke-miterlimit="10"/>
<path d="M182.194 118.748L156.995 104.225" stroke="#D4780E" stroke-width="3" stroke-miterlimit="10"/>
<path d="M173.697 142.054L145.043 137.012" stroke="#D4780E" stroke-width="3" stroke-miterlimit="10"/>
<path d="M244.154 54V83.0372" stroke="#D4780E" stroke-width="3" stroke-miterlimit="10"/>
<path d="M278.569 60.062L268.622 87.3506" stroke="#D4780E" stroke-width="3" stroke-miterlimit="10"/>
<path d="M308.839 77.4999L290.142 99.7465" stroke="#D4780E" stroke-width="3" stroke-miterlimit="10"/>
<path d="M331.303 104.225L306.104 118.748" stroke="#D4780E" stroke-width="3" stroke-miterlimit="10"/>
<path d="M343.264 137.012L314.61 142.054" stroke="#D4780E" stroke-width="3" stroke-miterlimit="10"/>
<path d="M247.209 347.675V319.726L309.189 282.373C313.596 279.716 317.384 276.151 320.299 271.916C323.215 267.681 325.191 262.873 326.095 257.814L332.246 223.269C332.342 222.743 332.328 222.204 332.205 221.684C332.082 221.165 331.853 220.676 331.532 220.248C331.212 219.821 330.806 219.464 330.342 219.199C329.877 218.935 329.362 218.77 328.83 218.713C325.19 218.344 319.798 219.354 315.691 226.708L316.255 208.483C316.275 207.919 316.172 207.358 315.953 206.838C315.734 206.318 315.404 205.852 314.987 205.472C314.569 205.092 314.074 204.808 313.535 204.638C312.996 204.469 312.426 204.418 311.866 204.49L310.552 204.656C306.97 205.103 303.675 206.84 301.286 209.542C298.897 212.243 297.578 215.722 297.578 219.325V249.965L291.057 220.112C290.951 219.598 290.718 219.118 290.38 218.716C290.042 218.315 289.609 218.003 289.121 217.81C288.632 217.618 288.103 217.549 287.581 217.612C287.059 217.674 286.561 217.866 286.132 218.169L283.874 219.772C281.25 221.626 279.223 224.202 278.043 227.187C276.862 230.172 276.578 233.435 277.226 236.578L282.978 264.615L266.685 238.54C266.473 238.2 266.184 237.913 265.842 237.703C265.499 237.493 265.112 237.366 264.712 237.331C264.311 237.296 263.908 237.355 263.535 237.502C263.161 237.65 262.827 237.882 262.558 238.181V238.181C260.937 239.996 259.887 242.247 259.541 244.654C259.195 247.061 259.567 249.517 260.612 251.714L269.099 269.666L256.631 281.178C256.631 281.178 196.15 286.113 196.15 321.348V347.675H247.209Z" fill="#2592E6"/>
<path d="M196.141 334.046L247.21 337.805V347.675H196.141V334.046Z" fill="#0A152B"/>
<path d="M284.059 266.091L284.954 267.306C286.258 269.063 286.872 271.236 286.68 273.414C286.488 275.592 285.504 277.625 283.913 279.128L260.622 301.084" stroke="#0A152B" stroke-width="0.75" stroke-linecap="round" stroke-linejoin="round"/>
<path d="M298.279 254.424L299.077 258.213C299.926 262.227 299.757 266.389 298.586 270.321C297.415 274.254 295.279 277.832 292.371 280.731L274.676 298.354" stroke="#0A152B" stroke-width="0.75" stroke-linecap="round" stroke-linejoin="round"/>
<path d="M315.691 229.516L314.951 258.349C314.85 262.205 313.93 265.996 312.253 269.471C310.575 272.945 308.177 276.025 305.218 278.507L289.081 292" stroke="#0A152B" stroke-width="0.75" stroke-linecap="round" stroke-linejoin="round"/>
<path d="M262.743 340.389H187.43V369.281H262.743V340.389Z" fill="#BEDCE0"/>
<path d="M266.062 363.209H184.101V401.398H266.062V363.209Z" fill="#0A152B"/>
<path d="M231.948 390.391V363.209" stroke="#BEDCE0" stroke-miterlimit="10"/>
<path d="M245.146 371.321C245.146 372.111 244.912 372.882 244.472 373.539C244.033 374.196 243.408 374.707 242.677 375.01C241.946 375.312 241.142 375.391 240.366 375.237C239.59 375.083 238.877 374.703 238.318 374.144C237.758 373.586 237.377 372.874 237.223 372.1C237.069 371.325 237.148 370.522 237.451 369.793C237.753 369.063 238.266 368.44 238.924 368.001C239.582 367.562 240.355 367.328 241.146 367.328C242.207 367.328 243.225 367.749 243.975 368.498C244.725 369.246 245.146 370.262 245.146 371.321V371.321Z" stroke="#BEDCE0" stroke-miterlimit="10"/>
<path d="M245.146 385.602C245.146 386.391 244.912 387.163 244.472 387.82C244.033 388.477 243.408 388.988 242.677 389.29C241.946 389.593 241.142 389.672 240.366 389.518C239.59 389.364 238.877 388.983 238.318 388.425C237.758 387.867 237.377 387.155 237.223 386.381C237.069 385.606 237.148 384.803 237.451 384.074C237.753 383.344 238.266 382.721 238.924 382.282C239.582 381.843 240.355 381.609 241.146 381.609C242.207 381.609 243.225 382.03 243.975 382.778C244.725 383.527 245.146 384.543 245.146 385.602V385.602Z" stroke="#BEDCE0" stroke-miterlimit="10"/>
<path d="M122.764 265.829L106.199 310.138H167.546L184.111 265.829H122.764Z" fill="#BEDCE0"/>
<path d="M125.908 265.829L109.342 310.138" stroke="#2592E6" stroke-width="0.75" stroke-miterlimit="10"/>
<path d="M156.07 285.424C155.443 287.594 154.153 289.514 152.381 290.918C150.608 292.321 148.441 293.138 146.181 293.254C141.841 293.254 139.252 289.747 140.342 285.424C140.971 283.253 142.262 281.332 144.036 279.928C145.81 278.525 147.979 277.709 150.24 277.594C154.61 277.594 157.209 281.13 156.07 285.424Z" stroke="white" stroke-width="0.75" stroke-miterlimit="10"/>
<path d="M135.212 297.431L136.497 310.39H167.545L153.141 297.431H135.212Z" fill="#2592E6"/>
<path d="M153.141 297.431L162.825 323.34H144.897L135.212 297.431H153.141Z" fill="#BEDCE0"/>
<path d="M137.13 297.431L147.135 323.554" stroke="#2592E6" stroke-width="0.75" stroke-miterlimit="10"/>
<path d="M410.753 130.396C410.753 118.137 398.742 108.198 383.938 108.198C369.134 108.198 357.114 118.137 357.114 130.396C357.114 139.985 364.443 148.145 374.711 151.254C375.992 151.65 377.174 152.312 378.18 153.196C379.187 154.08 379.995 155.166 380.551 156.383L383.987 163.766L387.423 156.383C387.972 155.171 388.771 154.088 389.767 153.205C390.763 152.321 391.934 151.656 393.204 151.254C403.424 148.145 410.753 139.985 410.753 130.396Z" fill="#2592E6"/>
<path d="M374.089 130.115C374.091 130.595 373.95 131.066 373.683 131.467C373.417 131.867 373.038 132.18 372.593 132.365C372.149 132.551 371.659 132.6 371.187 132.508C370.714 132.415 370.28 132.184 369.938 131.845C369.597 131.506 369.364 131.073 369.27 130.602C369.175 130.13 369.223 129.642 369.406 129.197C369.59 128.753 369.902 128.373 370.303 128.106C370.703 127.838 371.174 127.696 371.655 127.696C372.299 127.696 372.917 127.95 373.373 128.404C373.829 128.857 374.086 129.472 374.089 130.115V130.115Z" fill="white"/>
<path d="M382.274 130.115C382.276 130.595 382.135 131.066 381.869 131.467C381.603 131.867 381.223 132.18 380.779 132.365C380.334 132.551 379.845 132.6 379.372 132.508C378.9 132.415 378.465 132.184 378.124 131.845C377.782 131.506 377.55 131.073 377.455 130.602C377.36 130.13 377.408 129.642 377.592 129.197C377.776 128.753 378.088 128.373 378.488 128.106C378.888 127.838 379.359 127.696 379.841 127.696C380.485 127.696 381.102 127.95 381.558 128.404C382.014 128.857 382.272 129.472 382.274 130.115V130.115Z" fill="white"/>
<path d="M390.46 130.115C390.462 130.595 390.321 131.066 390.054 131.467C389.788 131.867 389.409 132.18 388.964 132.365C388.52 132.551 388.03 132.6 387.558 132.508C387.085 132.415 386.651 132.184 386.309 131.845C385.968 131.506 385.735 131.073 385.641 130.602C385.546 130.13 385.594 129.642 385.778 129.197C385.961 128.753 386.273 128.373 386.674 128.106C387.074 127.838 387.545 127.696 388.026 127.696C388.67 127.696 389.288 127.95 389.744 128.404C390.2 128.857 390.457 129.472 390.46 130.115V130.115Z" fill="white"/>
<path d="M398.655 130.115C398.656 130.595 398.515 131.066 398.249 131.467C397.983 131.867 397.604 132.18 397.159 132.365C396.715 132.551 396.225 132.6 395.753 132.508C395.28 132.415 394.845 132.184 394.504 131.845C394.163 131.506 393.93 131.073 393.836 130.602C393.741 130.13 393.788 129.642 393.972 129.197C394.156 128.753 394.468 128.373 394.868 128.106C395.269 127.838 395.74 127.696 396.221 127.696C396.865 127.696 397.482 127.95 397.938 128.404C398.394 128.857 398.652 129.472 398.655 130.115V130.115Z" fill="white"/>
</g>
<defs>
<filter id="filter0_d_2_338" x="0" y="0" width="494" height="494" filterUnits="userSpaceOnUse" color-interpolation-filters="sRGB">
<feFlood flood-opacity="0" result="BackgroundImageFix"/>
<feColorMatrix in="SourceAlpha" type="matrix" values="0 0 0 0 0 0 0 0 0 0 0 0 0 0 0 0 0 0 127 0" result="hardAlpha"/>
<feOffset dy="4"/>
<feGaussianBlur stdDeviation="6"/>
<feComposite in2="hardAlpha" operator="out"/>
<feColorMatrix type="matrix" values="0 0 0 0 0 0 0 0 0 0 0 0 0 0 0 0 0 0 0.05 0"/>
<feBlend mode="normal" in2="BackgroundImageFix" result="effect1_dropShadow_2_338"/>
<feBlend mode="normal" in="SourceGraphic" in2="effect1_dropShadow_2_338" result="shape"/>
</filter>
<clipPath id="clip0_2_338">
<rect width="511" height="348" fill="white" transform="translate(3 54)"/>
</clipPath>
</defs>
</svg>
