<svg width="187" height="41" viewBox="0 0 187 41" fill="none" xmlns="http://www.w3.org/2000/svg">
<path d="M3.03559 10.8774H5.98567C8.46545 10.8774 11.0521 8.86388 11.0521 5.84359C11.0521 3.80818 9.81223 0.875444 5.70777 0.875444H0V16.1957H3.03559V10.8774ZM5.90016 8.01032H3.03559V3.69875H5.81465C7.63173 3.69875 8.01653 5.09947 8.01653 5.84359C8.01653 6.52206 7.63173 7.96655 5.90016 8.01032Z" fill="white"/>
<path d="M18.288 5.03381C14.1836 5.03381 12.9651 8.42616 12.9651 10.7242C12.9651 13.0879 14.1836 16.3927 18.288 16.3927C22.3925 16.3927 23.611 13.0879 23.611 10.7242C23.611 8.42616 22.3925 5.03381 18.288 5.03381ZM18.288 13.7445C16.1503 13.7445 15.8296 11.4683 15.8296 10.7242C15.8296 9.98007 16.1503 7.68203 18.288 7.68203C20.4258 7.68203 20.7251 9.98007 20.7251 10.7242C20.7251 11.4683 20.4258 13.7445 18.288 13.7445Z" fill="white"/>
<path d="M29.3273 0.853558H26.3986V16.1957H29.3273V0.853558Z" fill="white"/>
<path d="M35.8234 5.25267H32.916V16.1957H35.8234V5.25267ZM32.745 1.68523C32.745 2.64822 33.4505 3.34858 34.3911 3.34858C35.3103 3.34858 36.0157 2.64822 36.0157 1.68523C36.0157 0.744128 35.3103 0 34.3911 0C33.4505 0 32.745 0.744128 32.745 1.68523Z" fill="white"/>
<path d="M46.736 12.4094C45.945 13.1973 45.0472 13.5037 44.3845 13.5037C43.1019 13.5037 41.9047 12.497 41.9047 10.7023C41.9047 9.27972 42.7171 7.83523 44.3631 7.83523C45.2182 7.83523 46.2657 8.38238 46.9498 9.1484L48.6172 7.24431C47.5056 5.9968 46.1588 5.07758 44.3631 5.07758C40.0876 5.07758 39.0188 8.33861 39.0188 10.768C39.0188 13.066 40.3014 16.3489 44.4059 16.3489C46.0733 16.3489 47.3346 15.6267 48.4248 14.4886L46.736 12.4094Z" fill="white"/>
<path d="M54.5967 15.3203L52.5872 20.3103V20.5511H55.6015L61.9505 5.25267H58.7012C57.8888 7.33185 56.82 10.0676 56.1573 11.8404L53.5278 5.25267H50.2144C51.5397 8.38238 53.421 12.4313 54.5967 15.3203Z" fill="white"/>
<path d="M69.6503 16.1957H73.0279L74.4815 12.5845H79.0136L80.4886 16.1957H83.8448L76.8544 0.678469H76.6407L69.6503 16.1957ZM76.7475 7.02544L77.9661 10.0238H75.529L76.7475 7.02544Z" fill="white"/>
<path d="M91.0839 5.05569C86.7871 5.05569 85.761 8.29484 85.761 10.7242C85.761 13.066 86.894 16.3927 90.8702 16.3927C91.7466 16.3927 93.0507 15.9988 93.6706 15.4297L93.9057 16.1957H95.8939V0.853558H93.0079V5.42776C92.4948 5.18701 91.7894 5.05569 91.0839 5.05569ZM91.0839 13.7226C88.8821 13.7226 88.6255 11.5996 88.6255 10.7242C88.6255 9.65178 88.9248 7.70391 91.255 7.70391C91.7466 7.70391 92.5804 7.94466 93.0079 8.22918V12.869C92.73 13.263 91.9604 13.7226 91.0839 13.7226Z" fill="white"/>
<path d="M103.429 10.571L101.163 5.25267H97.978L103.344 16.2395H103.493L108.88 5.25267H105.695L103.429 10.571Z" fill="white"/>
<path d="M114.256 5.25267H111.349V16.1957H114.256V5.25267ZM111.178 1.68523C111.178 2.64822 111.883 3.34858 112.824 3.34858C113.743 3.34858 114.448 2.64822 114.448 1.68523C114.448 0.744128 113.743 0 112.824 0C111.883 0 111.178 0.744128 111.178 1.68523Z" fill="white"/>
<path d="M120.594 8.38238C120.594 7.92278 121.171 7.79146 121.77 7.79146C122.411 7.79146 123.608 8.2073 124.484 8.64502L125.575 6.21566C123.587 5.2089 122.026 5.07758 121.427 5.07758C119.268 5.07758 117.793 6.34698 117.793 8.46993C117.793 10.768 119.589 11.3808 121.107 11.8623C122.069 12.1468 122.881 12.4094 122.881 13.0441C122.881 13.46 122.325 13.7226 121.705 13.7226C120.808 13.7226 119.696 13.2849 118.606 12.7158L117.451 15.0358C118.948 15.9331 120.209 16.3708 121.812 16.3708C124.121 16.3708 125.831 15.0139 125.831 13.0222C125.831 10.5053 123.779 9.82687 122.176 9.3016C121.299 9.01708 120.594 8.77633 120.594 8.38238Z" fill="white"/>
<path d="M133.713 5.03381C129.609 5.03381 128.391 8.42616 128.391 10.7242C128.391 13.0879 129.609 16.3927 133.713 16.3927C137.818 16.3927 139.036 13.0879 139.036 10.7242C139.036 8.42616 137.818 5.03381 133.713 5.03381ZM133.713 13.7445C131.576 13.7445 131.255 11.4683 131.255 10.7242C131.255 9.98007 131.576 7.68203 133.713 7.68203C135.851 7.68203 136.151 9.98007 136.151 10.7242C136.151 11.4683 135.851 13.7445 133.713 13.7445Z" fill="white"/>
<path d="M148.767 5.29644C148.275 5.18701 147.463 5.12135 146.992 5.12135C146.009 5.12135 145.111 5.3621 144.256 5.93114L144 5.25267H142.033V16.1957H144.919V8.75445C145.325 8.05409 145.988 7.85712 146.672 7.85712C147.121 7.85712 147.527 7.92278 147.933 8.01032L148.767 5.29644Z" fill="white"/>
<path d="M153.62 8.38238C153.62 7.92278 154.197 7.79146 154.796 7.79146C155.437 7.79146 156.634 8.2073 157.511 8.64502L158.601 6.21566C156.613 5.2089 155.052 5.07758 154.454 5.07758C152.295 5.07758 150.82 6.34698 150.82 8.46993C150.82 10.768 152.615 11.3808 154.133 11.8623C155.095 12.1468 155.908 12.4094 155.908 13.0441C155.908 13.46 155.352 13.7226 154.732 13.7226C153.834 13.7226 152.722 13.2849 151.632 12.7158L150.478 15.0358C151.974 15.9331 153.235 16.3708 154.839 16.3708C157.147 16.3708 158.858 15.0139 158.858 13.0222C158.858 10.5053 156.805 9.82687 155.202 9.3016C154.326 9.01708 153.62 8.77633 153.62 8.38238Z" fill="white"/>
<path d="M74.7322 26.774C74.2405 26.2706 73.6847 25.6578 73.6847 24.8262C73.6847 24.3884 73.9199 23.5786 74.8391 23.5786C75.5873 23.5786 75.9507 24.1915 75.9507 24.8043C75.9507 25.7016 75.3949 26.2706 74.7322 26.774ZM72.8724 32.0924C72.8938 31.4139 73.5778 30.8011 74.3047 30.2758L77.1051 33.3617C76.5279 33.8651 75.908 34.084 74.9888 34.084C73.8985 34.084 72.8724 33.3399 72.8724 32.0924ZM78.6443 24.7824C78.6443 22.944 77.4685 21.0617 74.9246 21.0617C72.2097 21.0617 71.0126 23.0534 71.0126 24.848C71.0126 26.0737 71.3974 27.0804 72.2097 28.0215C72.2738 28.0872 72.3166 28.1747 72.4021 28.2404C71.1194 29.1158 70.072 30.232 70.072 32.2237C70.072 34.5436 72.0173 36.7103 74.8391 36.776C76.5065 36.776 77.8319 36.3383 78.9436 35.3315L80.5683 37.0386L82.4495 35.244L80.5896 33.2304C81.1668 32.1361 81.6585 30.7573 81.8081 29.0502L79.3711 28.5687C79.2642 29.2472 78.965 30.2977 78.6443 31.0637L76.4852 28.7C77.6182 27.7808 78.6443 26.4676 78.6443 24.7824Z" fill="white"/>
<path d="M104.694 23.9507C103.197 22.2217 101.423 21.0836 98.8578 21.0836C93.15 21.0836 91.4185 25.7454 91.4185 28.9407C91.4185 32.2237 93.15 36.8198 98.8578 36.8198C101.252 36.8198 103.069 35.813 104.608 34.2372L102.898 32.1142C101.893 33.0553 100.311 33.887 98.8792 33.887C95.0526 33.887 94.4968 30.1883 94.4968 28.9407C94.4968 27.6932 95.0312 23.9726 98.8578 23.9726C100.247 23.9726 101.893 24.8918 102.706 25.9205L104.694 23.9507Z" fill="white"/>
<path d="M112.378 25.4609C108.273 25.4609 107.055 28.8532 107.055 31.1512C107.055 33.5149 108.273 36.8198 112.378 36.8198C116.482 36.8198 117.701 33.5149 117.701 31.1512C117.701 28.8532 116.482 25.4609 112.378 25.4609ZM112.378 34.1715C110.24 34.1715 109.919 31.8954 109.919 31.1512C109.919 30.4071 110.24 28.1091 112.378 28.1091C114.516 28.1091 114.815 30.4071 114.815 31.1512C114.815 31.8954 114.516 34.1715 112.378 34.1715Z" fill="white"/>
<path d="M123.583 29.094C123.925 28.6125 124.609 28.131 125.507 28.131C126.918 28.131 126.918 29.5536 126.897 30.6916V36.6228H129.825V29.0721C130.167 28.6343 130.83 28.131 131.642 28.131C133.053 28.131 133.053 29.5536 133.032 30.6916V36.6228H135.982V30.9762C135.982 28.4155 135.832 25.5046 131.749 25.5046C130.68 25.5046 129.633 25.8986 128.756 26.5989C128.115 25.8986 127.175 25.5046 125.614 25.5046C124.695 25.5046 123.669 25.8548 122.92 26.5114L122.664 25.6797H120.697V36.6228H123.583V29.094Z" fill="white"/>
<path d="M143.795 36.7979C148.092 36.7979 149.118 33.5587 149.118 31.1294C149.118 28.7875 147.985 25.4609 144.009 25.4609C143.132 25.4609 141.828 25.8548 141.208 26.4238L140.973 25.6578H138.985V41H141.871V36.4258C142.384 36.6665 143.089 36.7979 143.795 36.7979ZM143.795 28.131C145.997 28.131 146.253 30.2539 146.253 31.1294C146.253 32.2018 145.954 34.1496 143.624 34.1496C143.132 34.1496 142.298 33.9089 141.871 33.6244V28.9845C142.149 28.5906 142.918 28.131 143.795 28.131Z" fill="white"/>
<path d="M152.266 26.6427L153.206 28.897C154.297 28.4155 155.579 28.131 156.071 28.131C157.012 28.131 157.503 28.3936 157.503 29.9256C157.118 29.8381 156.712 29.7724 156.263 29.7724C154.061 29.7724 151.689 30.4071 151.689 33.4055C151.689 34.6968 152.308 36.9948 155.643 36.8416C156.605 36.7979 157.525 36.4915 158.187 35.9224L158.401 36.6228H160.411V30.1445C160.411 27.9121 160.111 25.4827 156.456 25.4827C154.938 25.4827 153.548 25.9642 152.266 26.6427ZM157.503 33.4055C157.247 33.7995 156.498 34.2591 155.707 34.2591C155.045 34.2591 154.446 33.9089 154.446 33.2523C154.446 32.2237 155.323 31.9829 156.178 31.9829C156.669 31.9829 157.183 32.1361 157.503 32.2237V33.4055Z" fill="white"/>
<path d="M166.714 29.094C167.056 28.6125 167.74 28.1528 168.638 28.1528C170.22 28.1528 170.391 29.7943 170.391 30.9762V36.6228H173.341V30.9762C173.341 28.4155 172.806 25.5046 168.745 25.5046C167.825 25.5046 166.863 25.7891 166.051 26.4676L165.794 25.6797H163.828V36.6228H166.714V29.094Z" fill="white"/>
<path d="M179.646 35.7473L177.637 40.7374V40.9781H180.651L187 25.6797H183.751C182.938 27.7589 181.869 30.4947 181.207 32.2674L178.577 25.6797H175.264C176.589 28.8094 178.47 32.8584 179.646 35.7473Z" fill="white"/>
</svg>
