<svg width="20" height="20" viewBox="0 0 20 20" fill="none" xmlns="http://www.w3.org/2000/svg">
<path d="M13.0004 9.6C13.0004 10.3956 12.6843 11.1587 12.1217 11.7213C11.5591 12.2839 10.796 12.6 10.0004 12.6C9.20474 12.6 8.44168 12.2839 7.87907 11.7213C7.31646 11.1587 7.00039 10.3956 7.00039 9.6C7.00039 9.429 7.01839 9.262 7.04939 9.1H6.00039V13.097C6.00039 13.375 6.22539 13.6 6.50339 13.6H13.4984C13.6316 13.5997 13.7593 13.5466 13.8534 13.4523C13.9475 13.358 14.0004 13.2302 14.0004 13.097V9.1H12.9514C12.9824 9.262 13.0004 9.429 13.0004 9.6V9.6ZM10.0004 11.6C10.2631 11.5999 10.5232 11.5481 10.7659 11.4475C11.0086 11.3469 11.2291 11.1995 11.4148 11.0137C11.6005 10.8279 11.7478 10.6073 11.8483 10.3646C11.9488 10.1219 12.0005 9.86171 12.0004 9.599C12.0003 9.33629 11.9485 9.07617 11.8479 8.83348C11.7473 8.59079 11.5999 8.3703 11.4141 8.18458C11.2283 7.99886 11.0077 7.85156 10.765 7.75109C10.5223 7.65061 10.2621 7.59893 9.99939 7.599C9.46883 7.59913 8.96004 7.81003 8.58497 8.18529C8.2099 8.56055 7.99926 9.06943 7.99939 9.6C7.99952 10.1306 8.21042 10.6393 8.58568 11.0144C8.96094 11.3895 9.46983 11.6001 10.0004 11.6V11.6ZM12.4004 7.5H13.5994C13.679 7.5 13.7555 7.46843 13.8119 7.41219C13.8683 7.35596 13.9001 7.27966 13.9004 7.2V6.001C13.9004 5.92117 13.8687 5.84461 13.8122 5.78816C13.7558 5.73171 13.6792 5.7 13.5994 5.7H12.4004C12.3206 5.7 12.244 5.73171 12.1876 5.78816C12.1311 5.84461 12.0994 5.92117 12.0994 6.001V7.2C12.1004 7.365 12.2354 7.5 12.4004 7.5V7.5ZM10.0004 0C7.45431 0 5.01251 1.01143 3.21217 2.81177C1.41182 4.61212 0.400391 7.05392 0.400391 9.6C0.400391 12.1461 1.41182 14.5879 3.21217 16.3882C5.01251 18.1886 7.45431 19.2 10.0004 19.2C11.2611 19.2 12.5094 18.9517 13.6742 18.4692C14.8389 17.9868 15.8972 17.2797 16.7886 16.3882C17.6801 15.4968 18.3872 14.4385 18.8696 13.2738C19.3521 12.109 19.6004 10.8607 19.6004 9.6C19.6004 8.33931 19.3521 7.09096 18.8696 5.92624C18.3872 4.76151 17.6801 3.70322 16.7886 2.81177C15.8972 1.92033 14.8389 1.2132 13.6742 0.730757C12.5094 0.248311 11.2611 0 10.0004 0V0ZM15.0004 13.489C15.0004 14.1 14.5004 14.6 13.8894 14.6H6.11139C5.50039 14.6 5.00039 14.1 5.00039 13.489V5.711C5.00039 5.1 5.50039 4.6 6.11139 4.6H13.8894C14.5004 4.6 15.0004 5.1 15.0004 5.711V13.489V13.489Z" fill="#E54A35"/>
</svg>
