<svg width="20" height="19" viewBox="0 0 20 19" fill="none" xmlns="http://www.w3.org/2000/svg">
<path d="M9.70019 0C4.45399 0 0.200195 4.25379 0.200195 9.5C0.200195 14.7462 4.45399 19 9.70019 19C14.9464 19 19.2002 14.7462 19.2002 9.5C19.2002 4.25379 14.9464 0 9.70019 0ZM14.2657 7.16105C14.2721 7.26071 14.2721 7.36462 14.2721 7.46641C14.2721 10.5794 11.9013 14.1652 7.56906 14.1652C6.23312 14.1652 4.99473 13.7771 3.95142 13.1092C4.14227 13.1304 4.32464 13.1388 4.51973 13.1388C5.62241 13.1388 6.63602 12.7656 7.44395 12.1337C6.40912 12.1125 5.5397 11.4339 5.24283 10.5009C5.60544 10.5539 5.932 10.5539 6.30522 10.4585C5.77238 10.3502 5.29346 10.0608 4.94981 9.6395C4.60615 9.21815 4.41897 8.69082 4.42006 8.1471V8.11741C4.73178 8.29341 5.09863 8.40156 5.48245 8.41641C5.15979 8.20137 4.89518 7.91004 4.71208 7.56825C4.52898 7.22647 4.43305 6.84478 4.43278 6.45703C4.43278 6.01808 4.54729 5.6173 4.75299 5.26953C5.34441 5.99759 6.08241 6.59305 6.91904 7.0172C7.75566 7.44136 8.67218 7.68472 9.60901 7.73147C9.27609 6.13047 10.4721 4.83482 11.9098 4.83482C12.5884 4.83482 13.1991 5.11897 13.6295 5.57701C14.1618 5.47734 14.6707 5.27801 15.1245 5.01083C14.9485 5.5558 14.5795 6.01596 14.0897 6.30647C14.5647 6.25558 15.0227 6.12411 15.4468 5.93962C15.1266 6.41038 14.7259 6.82813 14.2657 7.16105V7.16105Z" fill="#E54A35"/>
</svg>
